 <svg width="110" height="32" xmlns="http://www.w3.org/2000/svg"><g fill-rule="nonzero" fill="none"><path d="M31.329 26.038l-.011-.015c.679-.979 1.613-2.234 1.948-2.467l.067-.03c1.01-.059 1.576-.41 1.726-.518.191-.136.749-.678.842-.777.096-.102.385-.757.503-1.033l-.013.023.047-.109.008-.029.077-.238a.2.2 0 0 0-.105-.17.277.277 0 0 0-.162-.017l.005-.015a.676.676 0 0 0 .075-.244v-.017a.23.23 0 0 0-.118-.174c-.067-.037-.156-.035-.248-.014a.385.385 0 0 0-.109-.102c-.019-.014-.13-.053-.334.071a.898.898 0 0 0-.224.213l.015-.126a.217.217 0 0 0-.137-.149c-.097-.036-.22-.013-.338.065-.129.087-.303.36-.352.441a1.488 1.488 0 0 0-.317.361c-.33.106-.535.1-.621.067.201-.116.359-.226.446-.327.195-.236.306-.483.306-.685a.555.555 0 0 0-.009-.1.283.283 0 0 0-.142-.201c-.198-.099-.435.101-.48.143-.003.005-.069.074-.105.113a.822.822 0 0 0-.335.156c-.073.064-.16.093-.261.127-.122.04-.259.089-.394.202l-.011.009.01-.007-.309.207c-.312.163-.478.328-.655.502-.35.348-.79.78-2.757 1.432-.017-.721-.461-2.656-.551-3.396-.182-1.308-1.699-3.108-2.789-4.247 1.029.598 1.604.682 2.17-.089.149-.234.385.018.599-.023.311-.162.271-.249.271-.475.091-.241.336-.122.517-.151.458-.076.186-.556.365-.798 2.015-.12-.257-1.971 1.099-2.738.883-.412 1.216-.96 1.609-1.491.325-.437.392-.095.635-.455.439-1.578-.319-3.524-1.295-4.864-4.999-6.425-10.707-3.463-12.371.517-.688 1.012-.475 2.482-.514 3.692-.13.42-.382.409-.745.161-.082.833.569.999.858 1.054.031.107.221.269.301.38-.261.075-.805-.075-.983-.171-.007.189.016.344.168.517.12.594.422.805.852.98.802.325.426 1.424.332 1.876-.029.099-.06.199-.087.294-.74.19-1.235.861-1.432 1.557-.09 1.687-.961 3.088-.945 4.834 0 0-.016.256 0 .36.432 1.889-.121 4.365-.029 6.312-6.303.94-12.1 2.964-17.044 5.814 7.332-2.949 15.887-4.647 25.029-4.647 9.143 0 17.697 1.698 25.028 4.647-5.342-3.079-11.68-5.196-18.576-6.018m-5.482-5.867a.169.169 0 0 1-.139.109c-1.775.057-3.295.772-4.516 2.125 0 0-.137.133-.482-.138-.265-.206-.167-.423-.167-.423.47-1.184 1.683-1.965 3.6-2.319l.056-.008c.392-.054 1.306-.18 1.617.433 0 0 .066.118.031.221" fill="#D11947"/><path d="M49.031 22.46l-.008-.207c-.387-.048-.669-.199-1.049-.668-.451-.542-.847-1.281-1.153-1.863a1.641 1.641 0 0 0 1.21-1.568c0-.892-.717-1.608-1.936-1.608-.483 0-.902.049-1.66.049-.282.007-.613 0-.919-.008v.278l.459.047c.129.017.21.081.21.215v4.768c0 .191-.081.238-.21.254l-.459.048v.279h2.346v-.279l-.427-.055c-.105-.016-.161-.064-.161-.175v-2.15c.176 0 .363.009.483.017.379.676.766 1.449 1.234 2.061.395.525.854.636 1.387.636.202 0 .451-.039.653-.071zm-3.298-3.04c-.169 0-.314-.016-.459-.024v-2.388c.201-.024.41-.024.588-.024.67 0 1.097.43 1.097 1.218 0 .844-.477 1.226-1.226 1.218zm6.515 2.355l-.186-.223c-.33.192-.653.343-1.015.343-.831 0-1.307-.772-1.355-1.664h2.483v-.246c0-.963-.588-1.679-1.547-1.679-.872 0-1.815.843-1.815 2.156 0 1.433.984 2.102 1.879 2.102.573 0 1.226-.494 1.556-.789zm-1.75-3.055c.315 0 .751.223.847 1.074l-1.645.056c.064-.724.403-1.13.798-1.13zm5.071 2.522c0-.549-.298-.93-1.032-1.17l-.507-.166c-.549-.184-.693-.406-.693-.685 0-.318.241-.534.668-.534.573 0 .807.351 1 .86h.298l-.008-.986c-.411-.176-.685-.255-1.096-.255-.895 0-1.556.556-1.556 1.297 0 .589.338.94 1.104 1.186l.443.144c.501.158.613.405.613.699 0 .335-.257.621-.765.621-.573 0-.815-.342-1.024-1.019h-.347l.056 1.099c.201.111.678.27 1.178.27.887 0 1.668-.485 1.668-1.361zm3.838.533l-.185-.223c-.331.192-.654.343-1.016.343-.831 0-1.306-.772-1.354-1.664h2.483v-.246c0-.963-.588-1.679-1.548-1.679-.871 0-1.815.843-1.815 2.156 0 1.433.984 2.102 1.88 2.102.571 0 1.225-.494 1.555-.789zm-1.749-3.055c.314 0 .749.223.847 1.074l-1.645.056c.064-.724.403-1.13.798-1.13zm4.442 3.876l1.322-.215-.016-.232-.192-.023c-.259-.032-.363-.167-.363-.438l-.01-2.237c0-.636-.402-1.169-1.265-1.169-.759 0-1.709.604-1.709 1.218 0 .151.04.31.129.421l.798-.318a.955.955 0 0 1-.145-.438c-.008-.239.161-.43.533-.43.394 0 .693.327.693.701l.008.708-1.202.438c-.596.215-.944.557-.944 1.09 0 .518.339.938 1.04.938.347 0 .775-.324 1.146-.595.016.198.073.421.177.581zm-1.443-1.202c0-.279.08-.517.475-.645l.751-.239.008 1.21c-.283.16-.493.263-.669.263-.347 0-.565-.247-.565-.589zm5.072.819l-.371-.047c-.114-.017-.194-.048-.194-.207V19.77c.17-.334.436-.669.799-.708.249-.032.483.071.684.198l.234-.811a.988.988 0 0 0-.725-.192c-.444.049-.734.478-1.016 1.035 0-.318-.016-.748-.065-.97l-1.483.302.016.232.266.023c.218.015.306.167.306.438v2.642c0 .159-.073.19-.193.207l-.339.047v.263h2.081v-.263zm2.064-2.093c0-.947.468-1.361 1-1.361.426 0 .709.167 1.007.772h.283v-.915a2.08 2.08 0 0 0-1.153-.31c-.991 0-2.041.803-2.041 2.196 0 1.409 1.008 2.053 1.871 2.053.565 0 1.137-.516 1.451-.795l-.161-.199c-.282.191-.612.334-.951.334-.838 0-1.306-.843-1.306-1.775zm4.636 2.093l-.371-.047c-.121-.017-.194-.048-.194-.207v-2.65c.194-.168.484-.31.766-.31.476 0 .717.278.717.676v2.284c0 .159-.08.19-.193.207l-.33.047v.263h2v-.263l-.299-.047c-.121-.017-.194-.048-.194-.207v-2.476c0-.612-.403-1.161-1.201-1.161-.452 0-.919.247-1.266.628v-1.87c0-.295.016-.565.024-.789-.314.065-1.273.239-1.604.296l.016.222.306.024c.178.016.274.16.274.439v4.687c0 .159-.072.19-.193.207l-.298.047v.263h2.04v-.263zm6.563-.016l-.459-.048c-.13-.016-.211-.063-.211-.254v-2.141h2.613v2.141c0 .191-.08.238-.21.254l-.459.048v.279h2.427v-.279l-.46-.048c-.129-.016-.21-.063-.21-.254v-4.727c0-.192.081-.239.21-.256l.46-.047v-.278h-2.427v.278l.459.047c.13.017.21.064.21.256v2.133h-2.613v-2.133c0-.192.081-.239.211-.256l.459-.047v-.278h-2.427v.278l.459.047c.129.017.21.064.21.256v4.727c0 .191-.081.238-.21.254l-.459.048v.279h2.427v-.279zm3.918-1.679c0 1.186.782 2.061 1.943 2.061 1.21 0 2.097-1.035 2.097-2.212 0-1.178-.799-2.061-1.959-2.061-1.211 0-2.081 1.043-2.081 2.212zm3.048-.016c0 1.05-.404 1.656-.983 1.656-.621 0-1.073-.685-1.073-1.775 0-1.043.388-1.655.983-1.655.605 0 1.073.692 1.073 1.774zm4.379.74c0-.549-.298-.93-1.033-1.17l-.507-.166c-.549-.184-.694-.406-.694-.685 0-.318.241-.534.669-.534.572 0 .806.351.999.86h.299l-.009-.986c-.411-.176-.684-.255-1.096-.255-.894 0-1.555.556-1.555 1.297 0 .589.338.94 1.104 1.186l.443.144c.501.158.613.405.613.699 0 .335-.258.621-.766.621-.573 0-.815-.342-1.023-1.019h-.347l.056 1.099c.201.111.677.27 1.178.27.886 0 1.669-.485 1.669-1.361zm2.45 2.937l-.411-.048c-.122-.016-.194-.047-.194-.207v-1.488c.202.088.411.136.645.136 1.081 0 2.145-.931 2.145-2.268 0-1.226-.725-1.99-1.645-1.99-.443 0-.862.238-1.177.548a4.173 4.173 0 0 0-.057-.54l-1.483.302.016.232.226.023c.242.024.347.167.347.438v4.607c0 .16-.072.191-.195.207l-.338.048v.263h2.121v-.263zm.105-5.22c.669 0 1.112.596 1.112 1.527 0 1.122-.563 1.632-1.128 1.632-.266 0-.492-.088-.694-.247v-2.642c.186-.151.444-.27.71-.27zm4.007-1.926a.605.605 0 0 0-1.21 0 .605.605 0 0 0 1.21 0zm.436 5.443v-.263l-.339-.047c-.121-.017-.194-.048-.194-.207v-2.873c0-.287.007-.558.024-.78-.314.071-1.273.255-1.596.318l.016.232.299.023c.201.015.274.175.274.43v2.65c0 .159-.073.19-.193.207l-.34.047v.263h2.049zm2.733-.358l-.089-.238c-.194.07-.37.111-.549.111-.258 0-.459-.104-.45-.637v-2.419h1.008v-.454H98.98v-1.067l-.992.446v.621h-.573v.454h.573v2.546c0 .534.25 1.059 1.008 1.059.25 0 .531-.112 1.072-.422zm2.637.478l1.322-.215-.016-.232-.194-.023c-.258-.032-.362-.167-.362-.438l-.009-2.237c0-.636-.402-1.169-1.266-1.169-.758 0-1.709.604-1.709 1.218 0 .151.04.31.128.421l.799-.318a.944.944 0 0 1-.145-.438c-.008-.239.161-.43.532-.43.395 0 .694.327.694.701l.008.708-1.201.438c-.597.215-.945.557-.945 1.09 0 .518.339.938 1.04.938.348 0 .775-.324 1.146-.595.016.198.072.421.178.581zm-1.445-1.202c0-.279.081-.517.477-.645l.75-.239.008 1.21c-.283.16-.492.263-.67.263-.346 0-.565-.247-.565-.589zm4.508.565V17.08c0-.295.016-.565.025-.789-.315.065-1.275.239-1.605.296l.016.222.306.024c.177.016.275.16.275.439v4.687c0 .159-.073.19-.195.207l-.338.047v.263h2.04v-.263l-.33-.047c-.122-.017-.194-.048-.194-.207zM47.741 12.307c0-.763-.298-1.289-1.451-1.663l-.742-.238c-.686-.223-.911-.55-.911-1.011 0-.557.411-.892 1.048-.892s1.064.271 1.322 1.138h.323V8.408c-.485-.223-.944-.359-1.516-.359-1.113 0-1.968.708-1.968 1.776 0 .772.355 1.304 1.46 1.654l.653.208c.717.231.943.565.943 1.067 0 .517-.419.946-1.193.946-.822 0-1.201-.303-1.459-1.24h-.371l.008 1.321c.677.262 1.137.357 1.725.357 1.177 0 2.129-.732 2.129-1.831zm2.878 1.369l-.089-.237c-.192.071-.371.11-.547.11-.258 0-.461-.104-.452-.637v-2.418h1.008v-.455h-1.008V8.973l-.992.445v.621h-.572v.455h.572v2.546c0 .533.25 1.059 1.008 1.059.25 0 .532-.112 1.072-.423zm1.605-.15a.575.575 0 0 0-.581-.574.574.574 0 1 0 0 1.147.575.575 0 0 0 .581-.573zm3.265-4.8c0-.191.08-.238.217-.255l.453-.047v-.278h-2.46v.278l.508.04c.105.007.153.063.153.183v5.3c0 .963-.403 1.417-1.193 1.719l.113.247c1.371-.199 2.209-.891 2.209-2.3V8.726zm3.854 5.428l1.387-.215-.016-.23-.202-.025c-.257-.031-.363-.166-.363-.437v-2.603c0-.287.008-.556.024-.78l-1.595.319.015.231.299.024c.201.016.273.174.273.429v2.38c-.201.159-.459.279-.701.279-.476 0-.718-.295-.718-.717v-2.165c0-.287.008-.556.024-.78l-1.595.319.016.231.297.024c.202.016.274.174.274.429v2.229c0 .549.412 1.082 1.17 1.082.419 0 .919-.27 1.273-.613a1.9 1.9 0 0 0 .138.589zm6.015-.215l-.016-.23-.234-.025c-.258-.024-.363-.166-.363-.437V8.638c0-.294.016-.565.024-.787l-1.644.295.016.223.346.023c.178.016.274.159.274.438v1.177a1.595 1.595 0 0 0-.645-.134c-1.08 0-2.144.931-2.144 2.268 0 1.225.725 1.99 1.645 1.99.443 0 .87-.247 1.184-.558.016.199.065.43.138.581l1.419-.215zm-3.419-1.982c0-1.122.565-1.631 1.129-1.631.266 0 .491.088.693.247v2.642a1.164 1.164 0 0 1-.709.271c-.669 0-1.113-.597-1.113-1.529zm7.104 1.377l-.186-.222c-.331.191-.653.341-1.016.341-.831 0-1.306-.771-1.355-1.663h2.484v-.246c0-.963-.589-1.68-1.548-1.68-.871 0-1.815.844-1.815 2.157 0 1.432.984 2.102 1.879 2.102.573 0 1.227-.495 1.557-.789zm-1.75-3.056c.314 0 .75.223.847 1.074l-1.645.057c.064-.725.402-1.131.798-1.131zm8.804 3.39l.016-1.281h-.371c-.234.955-.532 1.297-1.572 1.297-1.209 0-2.072-1.011-2.105-2.602-.031-1.576.815-2.603 2.057-2.603.886 0 1.306.367 1.564 1.226h.371l-.024-1.265c-.509-.207-1.025-.398-1.79-.398-2.015 0-3.395 1.353-3.395 3.12 0 1.727 1.274 2.985 3.274 2.985.765 0 1.241-.144 1.975-.479zm2.596.104l-.37-.047c-.122-.016-.194-.049-.194-.207v-2.651c.194-.167.483-.31.766-.31.476 0 .717.278.717.676v2.285c0 .158-.08.191-.193.207l-.33.047v.262h1.999v-.262l-.298-.047c-.12-.016-.194-.049-.194-.207v-2.476c0-.612-.403-1.162-1.201-1.162-.452 0-.919.247-1.266.629V8.638c0-.294.016-.565.024-.787a81.13 81.13 0 0 1-1.605.295l.016.223.307.023c.177.016.274.159.274.438v4.688c0 .158-.073.191-.193.207l-.298.047v.262h2.039v-.262zm4.313-5.181a.604.604 0 0 0-1.208 0 .605.605 0 0 0 1.208 0zm.437 5.443v-.262l-.338-.047c-.123-.016-.195-.049-.195-.207v-2.874c0-.287.009-.556.024-.78-.314.072-1.274.255-1.596.319l.017.231.297.024c.202.016.274.174.274.429v2.651c0 .158-.072.191-.193.207l-.339.047v.262h2.049zm1.772-.516v-4.88c0-.294.017-.565.026-.787-.315.064-1.275.239-1.606.295l.016.223.308.023c.176.016.273.159.273.438v4.688c0 .158-.072.191-.192.207l-.34.047v.262h2.04v-.262l-.33-.047c-.121-.016-.195-.049-.195-.207zm5.242.421l-.016-.23-.234-.025c-.257-.024-.363-.166-.363-.437V8.638c0-.294.017-.565.025-.787l-1.645.295.016.223.347.023c.176.016.274.159.274.438v1.177a1.6 1.6 0 0 0-.646-.134c-1.081 0-2.145.931-2.145 2.268 0 1.225.727 1.99 1.645 1.99.444 0 .872-.247 1.186-.558.017.199.064.43.137.581l1.419-.215zm-3.419-1.982c0-1.122.564-1.631 1.13-1.631.265 0 .491.088.693.247v2.642a1.17 1.17 0 0 1-.711.271c-.669 0-1.112-.597-1.112-1.529zm5.676 1.815l-.37-.047c-.114-.016-.194-.049-.194-.207v-2.189c.169-.335.436-.669.799-.708.249-.033.483.071.684.197l.235-.811a.984.984 0 0 0-.727-.19c-.443.047-.733.477-1.015 1.034 0-.318-.016-.748-.065-.971l-1.483.303.016.231.266.024c.218.016.306.167.306.437v2.643c0 .158-.073.191-.193.207l-.339.047v.262h2.08v-.262zm4.596-.438l-.185-.222c-.33.191-.653.341-1.016.341-.83 0-1.307-.771-1.355-1.663h2.483v-.246c0-.963-.588-1.68-1.547-1.68-.872 0-1.814.844-1.814 2.157 0 1.432.983 2.102 1.877 2.102.574 0 1.226-.495 1.557-.789zm-1.75-3.056c.316 0 .751.223.847 1.074l-1.645.057c.065-.725.404-1.131.798-1.131zm4.088 3.494l-.331-.047c-.112-.016-.192-.049-.192-.207v-2.651c.192-.167.483-.31.765-.31.476 0 .718.278.718.676v2.285c0 .158-.08.191-.192.207l-.331.047v.262h2.04v-.262l-.34-.047c-.121-.016-.194-.049-.194-.207v-2.476c0-.612-.403-1.162-1.234-1.162-.435 0-.909.263-1.257.661a4.79 4.79 0 0 0-.063-.661l-1.485.303.016.231.266.024c.218.016.307.167.307.437v2.643c0 .158-.072.191-.194.207l-.339.047v.262h2.04v-.262zm2.968-4.297c0 .247-.186.469-.476.716l.16.143c.557-.406.993-.892.993-1.52 0-.422-.29-.653-.597-.653-.548 0-.661.596-.589.812.306.103.509.231.509.502zm3.499 3.326c0-.549-.299-.931-1.032-1.17l-.508-.167c-.548-.183-.694-.405-.694-.684 0-.319.242-.534.67-.534.572 0 .805.351 1 .859h.298l-.01-.986c-.411-.175-.684-.255-1.095-.255-.895 0-1.556.557-1.556 1.298 0 .589.339.939 1.105 1.185l.443.144c.5.158.612.406.612.7 0 .335-.258.621-.764.621-.574 0-.816-.342-1.025-1.019h-.347l.056 1.099c.202.111.677.27 1.178.27.887 0 1.669-.486 1.669-1.361zM107.172 4.095a1.84 1.84 0 0 0-1.863 1.858 1.84 1.84 0 0 0 1.863 1.858c1.05 0 1.873-.815 1.873-1.858 0-1.043-.823-1.858-1.873-1.858m0 3.392c-.854 0-1.497-.659-1.497-1.534 0-.876.643-1.535 1.497-1.535.865 0 1.516.659 1.516 1.535 0 .875-.651 1.534-1.516 1.534" fill="#474C55"/><path d="M107.535 6.027c.192-.104.303-.27.303-.452 0-.303-.212-.497-.543-.497h-.781V6.81h.349V6.1h.321l.412.71h.377l-.459-.772.021-.011zm-.324-.174h-.348v-.528h.366c.165 0 .272.106.272.268 0 .129-.09.26-.29.26z" fill="#474C55"/></g></svg>